<?xml version="1.0" standalone="no"?>
<!DOCTYPE svg PUBLIC "-//W3C//DTD SVG 20010904//EN"
 "http://www.w3.org/TR/2001/REC-SVG-20010904/DTD/svg10.dtd">
<svg version="1.0" xmlns="http://www.w3.org/2000/svg"
 width="320.000000pt" height="320.000000pt" viewBox="0 0 320.000000 320.000000"
 preserveAspectRatio="xMidYMid meet">
<metadata>
Created by potrace 1.11, written by Peter Selinger 2001-2013
</metadata>
<g transform="translate(0.000000,320.000000) scale(0.100000,-0.100000)"
fill="#000000" stroke="none">
<path d="M0 1600 l0 -1600 1600 0 1600 0 0 1600 0 1600 -1600 0 -1600 0 0
-1600z m1960 55 l0 -145 -205 0 -205 0 0 -655 0 -655 -170 0 -170 0 0 655 0
655 -205 0 -205 0 0 145 0 145 580 0 580 0 0 -145z m830 125 c30 -6 76 -18
103 -27 l47 -15 0 -141 c0 -78 -4 -148 -8 -155 -7 -9 -26 -4 -83 22 -93 43
-157 56 -268 56 -74 0 -95 -4 -140 -26 -64 -32 -91 -72 -91 -133 0 -40 5 -49
48 -90 30 -30 107 -78 216 -136 279 -149 355 -231 375 -406 19 -172 -16 -285
-119 -383 -109 -104 -226 -140 -455 -140 -153 1 -228 12 -345 52 l-55 19 -3
171 c-1 95 -1 172 1 172 3 0 34 -20 70 -44 104 -70 179 -91 322 -91 127 0 173
13 218 63 24 27 32 90 17 136 -17 52 -72 92 -259 190 -91 48 -188 104 -217
126 -120 90 -183 262 -154 420 46 251 263 387 600 376 69 -2 150 -9 180 -16z"/>
</g>
</svg>
